REM MD5 f7b0603946566c4eb5dd4c2208ebf1d6
FILE "Euro Demo Germany 09-01 (Germany).bin" BINARY
  TRACK 01 MODE2/2352
    INDEX 01 00:00:00
  TRACK 02 AUDIO
    INDEX 00 39:37:52
    INDEX 01 39:39:52
  TRACK 03 AUDIO
    INDEX 00 40:40:50
    INDEX 01 40:42:50
  TRACK 04 AUDIO
    INDEX 00 44:12:15
    INDEX 01 44:14:15
REM LEADOUT 47:15:47
